<?xml version="1.0" encoding="utf-8"?>
<!-- Generator: Adobe Illustrator 19.0.0, SVG Export Plug-In . SVG Version: 6.00 Build 0)  -->
<!DOCTYPE svg PUBLIC "-//W3C//DTD SVG 1.1//EN" "http://www.w3.org/Graphics/SVG/1.1/DTD/svg11.dtd">
<svg version="1.1" id="Layer_1" xmlns="http://www.w3.org/2000/svg" xmlns:xlink="http://www.w3.org/1999/xlink" x="0px" y="0px"
	 width="400px" height="400px" viewBox="0 0 400 400" enable-background="new 0 0 400 400" xml:space="preserve">
<path id="XMLID_3_" fill-rule="evenodd" clip-rule="evenodd" fill="#42C2C9" d="M399.9,206.7C403.6,96.3,317.1,3.8,206.7,0.1
	S3.8,82.9,0.1,193.3s82.8,202.9,193.2,206.6S396.2,317.1,399.9,206.7z"/>
<path id="XMLID_9_" fill="#FFFFFF" d="M279.4,127c-1.8,0-3.7,0.2-5.6,0.7l-51.6,14.4c-10.5,2.9-16.7,14-13.8,24.5l8.8,31.7
	c2.9,10.5,13.9,16.8,24.5,13.8l51.6-14.4c3.2-0.9,5.9-2.5,8.2-4.6c-2.1,29.1-18.7,55.2-45.6,66.5c-16.1,6.7-33.3,7.2-49.3,2.4l0,0
	c0,0,0,0,0,0c-2.2-0.7-4.4-1.4-6.5-2.3c-2-0.8-4-1.7-6-2.7c-10.6-1.8-19.5,1.7-19.5,1.7l-30.2,26.4l-75.5,66.1l-9,7.9L4.8,288
	c0,0-12.2,8.1,12.1-8c23.8-15.8,53.2-35.3,76.5-50.7c19.1-12.7,34.1-22.6,38.5-25.5c10.4-7,12.6-17.4,12.9-23.4
	c-0.1-1.5-0.1-3-0.1-4.5c0-0.1,0-0.1,0-0.1l0,0c0.3-31.3,17.2-60.1,45.8-72.1C221.5,90.5,256.9,101,279.4,127z"/>
<g id="XMLID_1_">
	<g id="XMLID_2_">
		<path id="XMLID_5_" fill="#28989C" d="M281.3,81.8c-3.3-2.3-8.7-0.7-11.4,2.3c-8.6,9.9-22.1,13.7-34.3,9.6
			c-12.5-4.2-21.2-16-21.5-29.3c-0.1-4.2-3.4-7.6-7.6-7.8c-10.9-0.5-21.7,0.2-32.2,2.1c-4.1,0.8-7,4.6-6.5,8.8
			c1.6,12.7-5.8,26.6-17.3,32.3c-12,5.9-26.6,3.6-36.2-5.8c-3-3-7.8-3-10.9-0.2c-8,7.3-15.1,15.4-21.2,24.4
			c-2.4,3.4-1.7,8.1,1.6,10.7c10.3,8.4,14.5,22.4,10.3,34.9c-4.1,12-16.7,21.2-29.3,21.6c-4.2,0.1-7.6,3.4-7.8,7.6
			C56.3,204.1,57,215,59,225.7c0.8,4.2,4.6,7,8.8,6.5c13.4-1.6,26.3,5.4,32.3,17.4c5.7,11.5,3.4,25.7-5.8,36.3
			c-3.1,3.3-2.9,7.8-0.1,10.9c7.3,8,15.6,15.2,24.6,21.4c3.4,2.3,8.8,0.6,11.5-2.5c7.9-9.7,21.6-13.7,34.2-9.4
			c12.5,4.2,21.2,16,21.5,29.3c0.1,4.2,3.4,7.6,7.6,7.7c10.8,0.5,21.6-0.2,32.2-2.1c4.1-0.7,7-4.6,6.5-8.8
			c-1.5-12.7,5.9-26.6,17.3-32.3c12-6,26.6-3.6,36.2,5.7c3,3,7.8,3,10.9,0.2c4.1-3.7,7.9-7.7,11.5-11.9c3.4-4,6.7-8.1,9.7-12.5
			c2.4-3.4,1.7-8.1-1.6-10.7c-10.4-8.4-14.5-22.4-10.2-34.9c4.1-12.1,16.7-21.3,29.4-21.6c4.2-0.1,7.5-3.4,7.8-7.6
			c0.5-10.9-0.2-21.9-2.1-32.6c-0.8-4.2-4.6-7-8.8-6.5c-13.4,1.6-26.3-5.4-32.3-17.4c-5.6-11.3-3.8-25.4,4.5-34.9l1.2-1.3
			c2.9-2.9,3-7.8,0.2-11C298.5,95.2,290.3,88,281.3,81.8L281.3,81.8z M281.7,212c-2.2,15.1-8.6,29.8-19.3,42.2l0,0
			c-29.9,34.5-82.1,38.3-116.6,8.3c-34.5-29.9-38.2-82.2-8.3-116.7s82.1-38.3,116.6-8.3c11.7,10.2,21.2,22.5,24.4,36.6
			C284,198.8,281.7,212,281.7,212z M262.4,254.2"/>
	</g>
</g>
<path id="XMLID_34_" fill="#FFFFFF" d="M131.9,203.7c10.4-7,12.6-17.4,12.9-23.4c-0.1-1.5-0.1-3-0.1-4.5c0-0.1,0-0.1,0-0.1l0,0
	c0.3-31.3,17.2-60.1,45.8-72.1c31-13,66.3-2.5,88.8,23.5c-1.8,0-3.7,0.2-5.6,0.7l-51.6,14.4c-10.5,2.9-16.7,14-13.8,24.5l8.8,31.7
	c2.9,10.5,13.9,16.8,24.5,13.8l51.6-14.4c3.2-0.9,5.9-2.5,8.2-4.6c-2.1,29.1-18.7,55.2-45.6,66.5c-16.1,6.7-33.3,7.2-49.3,2.4l0,0
	c0,0,0,0,0,0c-2.2-0.7-4.4-1.4-6.5-2.3c-2-0.8-4-1.7-6-2.7c-10.6-1.8-19.5,1.7-19.5,1.7"/>
</svg>
